<?xml version="1.0" standalone="no"?>
<!DOCTYPE svg PUBLIC "-//W3C//DTD SVG 20010904//EN"
 "http://www.w3.org/TR/2001/REC-SVG-20010904/DTD/svg10.dtd">
<svg version="1.0" xmlns="http://www.w3.org/2000/svg"
 width="234.000000pt" height="234.000000pt" viewBox="0 0 234.000000 234.000000"
 preserveAspectRatio="xMidYMid meet">
<metadata>
Created by potrace 1.14, written by Peter Selinger 2001-2017
</metadata>
<g transform="translate(0.000000,234.000000) scale(0.100000,-0.100000)"
fill="#000000" stroke="none">
<path d="M245 1636 c-19 -20 -20 -35 -20 -471 -1 -439 0 -450 20 -470 20 -20
31 -20 469 -21 442 0 450 0 470 20 21 21 21 30 22 467 0 427 0 447 -19 470
l-19 24 -452 1 c-443 0 -451 0 -471 -20z m872 -470 l0 -403 -402 0 -403 0 0
403 -1 402 403 0 402 0 1 -402z"/>
<path d="M460 1431 c-13 -5 -16 -21 -11 -72 1 -11 12 -15 43 -15 l42 1 2 43
c0 24 -4 43 -10 43 -6 1 -20 3 -31 4 -11 1 -27 -1 -35 -4z"/>
<path d="M631 1430 c-4 -3 -7 -23 -7 -45 l1 -40 173 -1 c98 0 176 4 179 9 3 5
7 25 8 43 1 25 -2 34 -14 35 -56 4 -334 3 -340 -1z"/>
<path d="M449 1208 c0 -2 -1 -22 -2 -45 l-2 -43 45 0 45 0 1 45 1 45 -43 0
c-24 0 -44 -1 -45 -2z"/>
<path d="M624 1165 l1 -45 178 0 c134 0 177 3 178 13 0 6 1 27 2 45 l2 32
-181 0 -180 0 0 -45z"/>
<path d="M446 981 c-2 -5 0 -67 3 -81 1 -4 25 -4 77 -1 9 1 12 52 5 82 -1 8
-81 7 -85 0z"/>
<path d="M629 986 c-1 -1 -2 -18 -3 -39 -2 -29 2 -41 15 -45 22 -9 328 -7 336
2 7 7 10 75 3 77 -5 2 -349 6 -351 5z"/>
<path d="M1342 1143 l3 -438 123 0 122 -1 0 247 c0 188 3 248 13 251 6 3 35 4
62 4 l50 -1 1 -115 c1 -63 2 -120 3 -125 0 -6 26 -11 59 -10 l57 0 5 125 5
125 60 0 60 0 0 -248 c0 -136 2 -247 5 -248 3 -1 58 -2 122 -3 98 -2 117 1
120 14 2 8 4 204 3 435 l0 420 -125 3 -126 3 1 -60 c0 -34 -4 -62 -10 -64 -5
-2 -34 -3 -62 -2 l-53 1 0 -63 0 -63 -60 0 c-33 0 -61 3 -61 8 -1 4 -3 30 -4
57 -2 28 -3 52 -4 56 -1 3 -22 5 -48 4 -71 -2 -73 0 -73 66 l0 59 -125 0 -125
0 2 -437z"/>
</g>
</svg>
